<svg xmlns="http://www.w3.org/2000/svg" viewBox="0 0 1000 1000" role="img" aria-labelledby="title" data-view="isometric" data-source="pcb-patent-art">
  <title id="title">Mounting hole</title>
  <g shape-rendering="geometricPrecision" transform="matrix(.46 .34 -.46 .34 500 160)">
  <path d="M800 500 L798.9 526.1 L795.4 552.1 L789.8 577.6 L781.9 602.6 L771.9 626.8 L759.8 650 L745.7 672.1 L729.8 692.8 L712.1 712.1 L692.8 729.8 L672.1 745.7 L650 759.8 L626.8 771.9 L602.6 781.9 L577.6 789.8 L552.1 795.4 L526.1 798.9 L500 800 L473.9 798.9 L447.9 795.4 L422.4 789.8 L397.4 781.9 L373.2 771.9 L350 759.8 L327.9 745.7 L307.2 729.8 L287.9 712.1 L270.2 692.8 L254.3 672.1 L240.2 650 L228.1 626.8 L218.1 602.6 L210.2 577.6 L204.6 552.1 L201.1 526.1 L200 500 L201.1 473.9 L204.6 447.9 L210.2 422.4 L218.1 397.4 L228.1 373.2 L240.2 350 L254.3 327.9 L270.2 307.2 L287.9 287.9 L307.2 270.2 L327.9 254.3 L350 240.2 L373.2 228.1 L397.4 218.1 L422.4 210.2 L447.9 204.6 L473.9 201.1 L500 200 L526.1 201.1 L552.1 204.6 L577.6 210.2 L602.6 218.1 L626.8 228.1 L650 240.2 L672.1 254.3 L692.8 270.2 L712.1 287.9 L729.8 307.2 L745.7 327.9 L759.8 350 L771.9 373.2 L781.9 397.4 L789.8 422.4 L795.4 447.9 L798.9 473.9 Z" fill="#ecc9a8" data-role="fill" data-layer="fill"/>
  <path d="M660 500 L658.9 518.9 L655.5 537.6 L650 555.7 L642.3 573.1 L632.7 589.4 L621.2 604.5 L608 618.1 L593.3 630 L577.2 640.1 L560.1 648.3 L542.2 654.3 L523.6 658.2 L504.7 659.9 L485.8 659.4 L467 656.6 L448.8 651.6 L431.2 644.4 L414.6 635.3 L399.2 624.2 L385.2 611.4 L372.8 597.1 L362.2 581.4 L353.6 564.5 L347 546.7 L342.5 528.3 L340.3 509.5 L340.3 490.5 L342.5 471.7 L347 453.3 L353.6 435.5 L362.2 418.6 L372.8 402.9 L385.2 388.6 L399.2 375.8 L414.6 364.7 L431.2 355.6 L448.8 348.4 L467 343.4 L485.8 340.6 L504.7 340.1 L523.6 341.8 L542.2 345.7 L560.1 351.7 L577.2 359.9 L593.3 370 L608 381.9 L621.2 395.5 L632.7 410.6 L642.3 426.9 L650 444.3 L655.5 462.4 L658.9 481.1 Z" fill="#f6f1e6" data-role="fill" data-layer="fill"/>
  <path d="M810 500 L808.8 527 L805.3 553.8 L799.4 580.2 L791.3 606 L781 631 L768.5 655 L753.9 677.8 L737.5 699.3 L719.2 719.2 L699.3 737.5 L677.8 753.9 L655 768.5 L631 781 L606 791.3 L580.2 799.4 L553.8 805.3 L527 808.8 L500 810 L473 808.8 L446.2 805.3 L419.8 799.4 L394 791.3 L369 781 L345 768.5 L322.2 753.9 L300.7 737.5 L280.8 719.2 L262.5 699.3 L246.1 677.8 L231.5 655 L219 631 L208.7 606 L200.6 580.2 L194.7 553.8 L191.2 527 L190 500 L191.2 473 L194.7 446.2 L200.6 419.8 L208.7 394 L219 369 L231.5 345 L246.1 322.2 L262.5 300.7 L280.8 280.8 L300.7 262.5 L322.2 246.1 L345 231.5 L369 219 L394 208.7 L419.8 200.6 L446.2 194.7 L473 191.2 L500 190 L527 191.2 L553.8 194.7 L580.2 200.6 L606 208.7 L631 219 L655 231.5 L677.8 246.1 L699.3 262.5 L719.2 280.8 L737.5 300.7 L753.9 322.2 L768.5 345 L781 369 L791.3 394 L799.4 419.8 L805.3 446.2 L808.8 473 Z M788.9 474.7 L785.6 449.6 L780.1 424.9 L772.5 400.8 L762.8 377.4 L751.1 355 L737.5 333.7 L722.1 313.6 L705.1 294.9 L686.4 277.9 L666.3 262.5 L645 248.9 L622.6 237.2 L599.2 227.5 L575.1 219.9 L550.4 214.4 L525.3 211.1 L500 210 L474.7 211.1 L449.6 214.4 L424.9 219.9 L400.8 227.5 L377.4 237.2 L355 248.9 L333.7 262.5 L313.6 277.9 L294.9 294.9 L277.9 313.6 L262.5 333.7 L248.9 355 L237.2 377.4 L227.5 400.8 L219.9 424.9 L214.4 449.6 L211.1 474.7 L210 500 L211.1 525.3 L214.4 550.4 L219.9 575.1 L227.5 599.2 L237.2 622.6 L248.9 645 L262.5 666.3 L277.9 686.4 L294.9 705.1 L313.6 722.1 L333.7 737.5 L355 751.1 L377.4 762.8 L400.8 772.5 L424.9 780.1 L449.6 785.6 L474.7 788.9 L500 790 L525.3 788.9 L550.4 785.6 L575.1 780.1 L599.2 772.5 L622.6 762.8 L645 751.1 L666.3 737.5 L686.4 722.1 L705.1 705.1 L722.1 686.4 L737.5 666.3 L751.1 645 L762.8 622.6 L772.5 599.2 L780.1 575.1 L785.6 550.4 L788.9 525.3 L790 500 Z" fill="#17252c" data-role="body" data-layer="ink"/>
  <path d="M670 500 L668.8 520.1 L665.3 539.9 L659.4 559.2 L651.3 577.6 L641 595 L628.8 611 L614.8 625.4 L599.1 638.1 L582.1 648.9 L563.9 657.6 L544.8 664 L525.1 668.2 L505 669.9 L484.9 669.3 L465 666.4 L445.5 661.1 L426.9 653.5 L409.2 643.8 L392.9 632 L378 618.4 L364.9 603.2 L353.6 586.5 L344.4 568.5 L337.4 549.7 L332.7 530.1 L330.3 510.1 L330.3 489.9 L332.7 469.9 L337.4 450.3 L344.4 431.5 L353.6 413.5 L364.9 396.8 L378 381.6 L392.9 368 L409.2 356.2 L426.9 346.5 L445.5 338.9 L465 333.6 L484.9 330.7 L505 330.1 L525.1 331.8 L544.8 336 L563.9 342.4 L582.1 351.1 L599.1 361.9 L614.8 374.6 L628.8 389 L641 405 L651.3 422.4 L659.4 440.8 L665.3 460.1 L668.8 479.9 Z M648.9 482.3 L645.8 464.8 L640.6 447.8 L633.4 431.5 L624.4 416.2 L613.6 402.1 L601.2 389.3 L587.4 378.1 L572.4 368.7 L556.4 361 L539.5 355.3 L522.1 351.7 L504.4 350.1 L486.7 350.6 L469.1 353.2 L452 357.9 L435.5 364.6 L419.9 373.2 L405.5 383.5 L392.4 395.5 L380.8 409 L370.9 423.7 L362.7 439.5 L356.6 456.2 L352.4 473.5 L350.3 491.1 L350.3 508.9 L352.4 526.5 L356.6 543.8 L362.7 560.5 L370.9 576.3 L380.8 591 L392.4 604.5 L405.5 616.5 L419.9 626.8 L435.5 635.4 L452 642.1 L469.1 646.8 L486.7 649.4 L504.4 649.9 L522.1 648.3 L539.5 644.7 L556.4 639 L572.4 631.3 L587.4 621.9 L601.2 610.7 L613.6 597.9 L624.4 583.8 L633.4 568.5 L640.6 552.2 L645.8 535.2 L648.9 517.7 L650 500 Z" fill="#17252c" data-role="body" data-layer="ink"/>
  <path d="M760.1 500 L757.8 511.5 L751.3 521.3 L741.5 527.8 L730 530.1 L718.5 527.8 L708.7 521.3 L702.2 511.5 L699.9 500 L702.2 488.5 L708.7 478.7 L718.5 472.2 L730 469.9 L741.5 472.2 L751.3 478.7 L757.8 488.5 Z M746.5 493.2 L742.6 487.4 L736.8 483.5 L730 482.1 L723.2 483.5 L717.4 487.4 L713.5 493.2 L712.1 500 L713.5 506.8 L717.4 512.6 L723.2 516.5 L730 517.9 L736.8 516.5 L742.6 512.6 L746.5 506.8 L747.9 500 Z" fill="#17252c" data-role="body" data-layer="ink"/>
  <path d="M692.8 662.6 L690.5 674.2 L683.9 683.9 L674.2 690.5 L662.6 692.8 L651.1 690.5 L641.3 683.9 L634.8 674.2 L632.5 662.6 L634.8 651.1 L641.3 641.3 L651.1 634.8 L662.6 632.5 L674.2 634.8 L683.9 641.3 L690.5 651.1 Z M679.2 655.8 L675.3 650 L669.5 646.1 L662.6 644.8 L655.8 646.1 L650 650 L646.1 655.8 L644.8 662.6 L646.1 669.5 L650 675.3 L655.8 679.2 L662.6 680.5 L669.5 679.2 L675.3 675.3 L679.2 669.5 L680.5 662.6 Z" fill="#17252c" data-role="body" data-layer="ink"/>
  <path d="M530.1 730 L527.8 741.5 L521.3 751.3 L511.5 757.8 L500 760.1 L488.5 757.8 L478.7 751.3 L472.2 741.5 L469.9 730 L472.2 718.5 L478.7 708.7 L488.5 702.2 L500 699.9 L511.5 702.2 L521.3 708.7 L527.8 718.5 Z M516.5 723.2 L512.6 717.4 L506.8 713.5 L500 712.1 L493.2 713.5 L487.4 717.4 L483.5 723.2 L482.1 730 L483.5 736.8 L487.4 742.6 L493.2 746.5 L500 747.9 L506.8 746.5 L512.6 742.6 L516.5 736.8 L517.9 730 Z" fill="#17252c" data-role="body" data-layer="ink"/>
  <path d="M367.5 662.6 L365.2 674.2 L358.7 683.9 L348.9 690.5 L337.4 692.8 L325.8 690.5 L316.1 683.9 L309.5 674.2 L307.2 662.6 L309.5 651.1 L316.1 641.3 L325.8 634.8 L337.4 632.5 L348.9 634.8 L358.7 641.3 L365.2 651.1 Z M353.9 655.8 L350 650 L344.2 646.1 L337.4 644.8 L330.5 646.1 L324.7 650 L320.8 655.8 L319.5 662.6 L320.8 669.5 L324.7 675.3 L330.5 679.2 L337.4 680.5 L344.2 679.2 L350 675.3 L353.9 669.5 L355.2 662.6 Z" fill="#17252c" data-role="body" data-layer="ink"/>
  <path d="M300.1 500 L297.8 511.5 L291.3 521.3 L281.5 527.8 L270 530.1 L258.5 527.8 L248.7 521.3 L242.2 511.5 L239.9 500 L242.2 488.5 L248.7 478.7 L258.5 472.2 L270 469.9 L281.5 472.2 L291.3 478.7 L297.8 488.5 Z M286.5 493.2 L282.6 487.4 L276.8 483.5 L270 482.1 L263.2 483.5 L257.4 487.4 L253.5 493.2 L252.1 500 L253.5 506.8 L257.4 512.6 L263.2 516.5 L270 517.9 L276.8 516.5 L282.6 512.6 L286.5 506.8 L287.9 500 Z" fill="#17252c" data-role="body" data-layer="ink"/>
  <path d="M367.5 337.4 L365.2 348.9 L358.7 358.7 L348.9 365.2 L337.4 367.5 L325.8 365.2 L316.1 358.7 L309.5 348.9 L307.2 337.4 L309.5 325.8 L316.1 316.1 L325.8 309.5 L337.4 307.2 L348.9 309.5 L358.7 316.1 L365.2 325.8 Z M353.9 330.5 L350 324.7 L344.2 320.8 L337.4 319.5 L330.5 320.8 L324.7 324.7 L320.8 330.5 L319.5 337.4 L320.8 344.2 L324.7 350 L330.5 353.9 L337.4 355.2 L344.2 353.9 L350 350 L353.9 344.2 L355.2 337.4 Z" fill="#17252c" data-role="body" data-layer="ink"/>
  <path d="M530.1 270 L527.8 281.5 L521.3 291.3 L511.5 297.8 L500 300.1 L488.5 297.8 L478.7 291.3 L472.2 281.5 L469.9 270 L472.2 258.5 L478.7 248.7 L488.5 242.2 L500 239.9 L511.5 242.2 L521.3 248.7 L527.8 258.5 Z M516.5 263.2 L512.6 257.4 L506.8 253.5 L500 252.1 L493.2 253.5 L487.4 257.4 L483.5 263.2 L482.1 270 L483.5 276.8 L487.4 282.6 L493.2 286.5 L500 287.9 L506.8 286.5 L512.6 282.6 L516.5 276.8 L517.9 270 Z" fill="#17252c" data-role="body" data-layer="ink"/>
  <path d="M692.8 337.4 L690.5 348.9 L683.9 358.7 L674.2 365.2 L662.6 367.5 L651.1 365.2 L641.3 358.7 L634.8 348.9 L632.5 337.4 L634.8 325.8 L641.3 316.1 L651.1 309.5 L662.6 307.2 L674.2 309.5 L683.9 316.1 L690.5 325.8 Z M679.2 330.5 L675.3 324.7 L669.5 320.8 L662.6 319.5 L655.8 320.8 L650 324.7 L646.1 330.5 L644.8 337.4 L646.1 344.2 L650 350 L655.8 353.9 L662.6 355.2 L669.5 353.9 L675.3 350 L679.2 344.2 L680.5 337.4 Z" fill="#17252c" data-role="body" data-layer="ink"/>
  <path d="M883.5 500 L882 533.4 L877.7 566.6 L870.4 599.3 L860.4 631.2 L847.6 662.1 L832.1 691.8 L814.1 720 L793.8 746.5 L771.2 771.2 L746.5 793.8 L720 814.1 L691.8 832.1 L662.1 847.6 L631.2 860.4 L599.3 870.4 L566.6 877.7 L533.4 882 L500 883.5 L466.6 882 L433.4 877.7 L400.7 870.4 L368.8 860.4 L337.9 847.6 L308.2 832.1 L280 814.1 L253.5 793.8 L228.8 771.2 L206.2 746.5 L185.9 720 L167.9 691.8 L152.4 662.1 L139.6 631.2 L129.6 599.3 L122.3 566.6 L118 533.4 L116.5 500 L118 466.6 L122.3 433.4 L129.6 400.7 L139.6 368.8 L152.4 337.9 L167.9 308.2 L185.9 280 L206.2 253.5 L228.8 228.8 L253.5 206.2 L280 185.9 L308.2 167.9 L337.9 152.4 L368.8 139.6 L400.7 129.6 L433.4 122.3 L466.6 118 L500 116.5 L533.4 118 L566.6 122.3 L599.3 129.6 L631.2 139.6 L662.1 152.4 L691.8 167.9 L720 185.9 L746.5 206.2 L771.2 228.8 L793.8 253.5 L814.1 280 L832.1 308.2 L847.6 337.9 L860.4 368.8 L870.4 400.7 L877.7 433.4 L882 466.6 Z M875.1 467.2 L870.8 434.6 L863.7 402.6 L853.8 371.2 L841.2 340.9 L826.1 311.8 L808.4 284.1 L788.4 258 L766.2 233.8 L742 211.6 L715.9 191.6 L688.2 173.9 L659.1 158.8 L628.8 146.2 L597.4 136.3 L565.4 129.2 L532.8 124.9 L500 123.5 L467.2 124.9 L434.6 129.2 L402.6 136.3 L371.2 146.2 L340.9 158.8 L311.8 173.9 L284.1 191.6 L258 211.6 L233.8 233.8 L211.6 258 L191.6 284.1 L173.9 311.8 L158.8 340.9 L146.2 371.2 L136.3 402.6 L129.2 434.6 L124.9 467.2 L123.5 500 L124.9 532.8 L129.2 565.4 L136.3 597.4 L146.2 628.8 L158.8 659.1 L173.9 688.2 L191.6 715.9 L211.6 742 L233.8 766.2 L258 788.4 L284.1 808.4 L311.8 826.1 L340.9 841.2 L371.2 853.8 L402.6 863.7 L434.6 870.8 L467.2 875.1 L500 876.5 L532.8 875.1 L565.4 870.8 L597.4 863.7 L628.8 853.8 L659.1 841.2 L688.2 826.1 L715.9 808.4 L742 788.4 L766.2 766.2 L788.4 742 L808.4 715.9 L826.1 688.2 L841.2 659.1 L853.8 628.8 L863.7 597.4 L870.8 565.4 L875.1 532.8 L876.5 500 Z" fill="#17252c" data-role="body" data-layer="ink"/>
  </g>
</svg>
